optRun
version=1
nRows=30
nColumns=21
inDegrees=no
endheader
time	r_shoulder_elev	r_elbow_flex	r_shoulder_elev_u	r_elbow_flex_u	TRIlong.activation	TRIlong.fiber_length	TRIlat.activation	TRIlat.fiber_length	TRImed.activation	TRImed.fiber_length	BIClong.activation	BIClong.fiber_length	BICshort.activation	BICshort.fiber_length	BRA.activation	BRA.fiber_length	DeltAnt.activation	DeltAnt.fiber_length	DeltPost.activation	DeltPost.fiber_length
        0.000000	        0.000000	        0.349066	        0.000000	       -0.000000	        0.050000	        0.143866	        0.050000	        0.077857	        0.050000	        0.072913	        0.089406	        0.139476	        0.107182	        0.141347	        0.051989	        0.086378	        0.050000	        0.161968	        0.107682	        0.108367
        0.000048	       -0.000000	        0.349066	       -0.000036	        0.000079	        0.050000	        0.143866	        0.050000	        0.077857	        0.050000	        0.072913	        0.089407	        0.139477	        0.107182	        0.141347	        0.051989	        0.086378	        0.050000	        0.161968	        0.107682	        0.108367
        0.000285	       -0.000000	        0.349066	       -0.000208	        0.000458	        0.050003	        0.143866	        0.050000	        0.077857	        0.050001	        0.072913	        0.089413	        0.139478	        0.107183	        0.141348	        0.051989	        0.086378	        0.050002	        0.161968	        0.107683	        0.108367
        0.000894	       -0.000000	        0.349066	       -0.000595	        0.001283	        0.050031	        0.143866	        0.050000	        0.077857	        0.050008	        0.072913	        0.089472	        0.139480	        0.107192	        0.141350	        0.051993	        0.086377	        0.050021	        0.161968	        0.107690	        0.108367
        0.001451	       -0.000001	        0.349067	       -0.000869	        0.001832	        0.050078	        0.143866	        0.049999	        0.077857	        0.050020	        0.072913	        0.089574	        0.139482	        0.107207	        0.141352	        0.051998	        0.086377	        0.050054	        0.161968	        0.107702	        0.108367
        0.002057	       -0.000001	        0.349069	       -0.001063	        0.002168	        0.050152	        0.143866	        0.049998	        0.077857	        0.050039	        0.072913	        0.089733	        0.139484	        0.107232	        0.141355	        0.052007	        0.086377	        0.050105	        0.161968	        0.107720	        0.108367
        0.002692	       -0.000002	        0.349070	       -0.001126	        0.002183	        0.050251	        0.143865	        0.049997	        0.077857	        0.050064	        0.072913	        0.089948	        0.139487	        0.107265	        0.141357	        0.052019	        0.086377	        0.050174	        0.161968	        0.107744	        0.108367
        0.003346	       -0.000003	        0.349071	       -0.001017	        0.001788	        0.050374	        0.143865	        0.049995	        0.077857	        0.050096	        0.072913	        0.090216	        0.139489	        0.107306	        0.141359	        0.052033	        0.086377	        0.050260	        0.161968	        0.107775	        0.108368
        0.004037	       -0.000003	        0.349072	       -0.000683	        0.000866	        0.050525	        0.143865	        0.049993	        0.077857	        0.050134	        0.072913	        0.090547	        0.139491	        0.107358	        0.141362	        0.052051	        0.086377	        0.050365	        0.161968	        0.107813	        0.108368
        0.004748	       -0.000004	        0.349072	       -0.000083	       -0.000671	        0.050701	        0.143864	        0.049991	        0.077857	        0.050179	        0.072912	        0.090932	        0.139493	        0.107418	        0.141364	        0.052072	        0.086377	        0.050486	        0.161967	        0.107858	        0.108368
        0.005548	       -0.000003	        0.349071	        0.000920	       -0.003140	        0.050919	        0.143863	        0.049987	        0.077857	        0.050235	        0.072912	        0.091412	        0.139494	        0.107493	        0.141366	        0.052098	        0.086377	        0.050638	        0.161967	        0.107913	        0.108367
        0.007159	        0.000001	        0.349060	        0.004017	       -0.010535	        0.051415	        0.143861	        0.049979	        0.077857	        0.050363	        0.072912	        0.092511	        0.139497	        0.107665	        0.141371	        0.052157	        0.086377	        0.050981	        0.161966	        0.108041	        0.108367
        0.008650	        0.000009	        0.349038	        0.008118	       -0.020137	        0.051927	        0.143858	        0.049970	        0.077857	        0.050495	        0.072911	        0.093654	        0.139499	        0.107845	        0.141374	        0.052218	        0.086377	        0.051337	        0.161964	        0.108176	        0.108367
        0.010220	        0.000026	        0.348996	        0.013577	       -0.032782	        0.052509	        0.143854	        0.049958	        0.077857	        0.050645	        0.072910	        0.094960	        0.139499	        0.108051	        0.141378	        0.052287	        0.086377	        0.051740	        0.161962	        0.108330	        0.108367
        0.011769	        0.000052	        0.348935	        0.019845	       -0.047218	        0.053115	        0.143850	        0.049945	        0.077856	        0.050802	        0.072909	        0.096326	        0.139499	        0.108268	        0.141381	        0.052360	        0.086377	        0.052160	        0.161960	        0.108492	        0.108367
        0.013455	        0.000092	        0.348841	        0.027263	       -0.064252	        0.053802	        0.143844	        0.049929	        0.077856	        0.050981	        0.072907	        0.097882	        0.139496	        0.108516	        0.141383	        0.052442	        0.086376	        0.052636	        0.161957	        0.108678	        0.108368
        0.015393	        0.000153	        0.348697	        0.036002	       -0.084294	        0.054617	        0.143837	        0.049909	        0.077854	        0.051194	        0.072904	        0.099736	        0.139492	        0.108813	        0.141386	        0.052540	        0.086376	        0.053200	        0.161953	        0.108901	        0.108369
        0.017757	        0.000251	        0.348469	        0.046225	       -0.107735	        0.055638	        0.143827	        0.049881	        0.077852	        0.051462	        0.072899	        0.102068	        0.139483	        0.109188	        0.141389	        0.052663	        0.086376	        0.053906	        0.161947	        0.109183	        0.108370
        0.021178	        0.000432	        0.348048	        0.059082	       -0.137182	        0.057146	        0.143811	        0.049834	        0.077846	        0.051860	        0.072890	        0.105525	        0.139468	        0.109747	        0.141394	        0.052846	        0.086376	        0.054949	        0.161938	        0.109605	        0.108374
        0.024945	        0.000677	        0.347480	        0.070625	       -0.163277	        0.058832	        0.143791	        0.049776	        0.077837	        0.052309	        0.072877	        0.109401	        0.139447	        0.110377	        0.141398	        0.053050	        0.086377	        0.056112	        0.161925	        0.110082	        0.108381
        0.028183	        0.000920	        0.346920	        0.079305	       -0.182215	        0.060290	        0.143774	        0.049720	        0.077828	        0.052700	        0.072864	        0.112762	        0.139427	        0.110926	        0.141402	        0.053228	        0.086378	        0.057116	        0.161913	        0.110499	        0.108389
        0.032001	        0.001241	        0.346186	        0.089260	       -0.202769	        0.062015	        0.143752	        0.049649	        0.077814	        0.053165	        0.072847	        0.116739	        0.139403	        0.111577	        0.141407	        0.053439	        0.086379	        0.058303	        0.161898	        0.110997	        0.108400
        0.037324	        0.001754	        0.345032	        0.104052	       -0.231013	        0.064420	        0.143721	        0.049540	        0.077792	        0.053821	        0.072818	        0.122287	        0.139369	        0.112488	        0.141414	        0.053734	        0.086381	        0.059954	        0.161874	        0.111697	        0.108419
        0.044524	        0.002580	        0.343235	        0.125398	       -0.267461	        0.067669	        0.143678	        0.049377	        0.077757	        0.054718	        0.072775	        0.129775	        0.139325	        0.113724	        0.141427	        0.054135	        0.086385	        0.062177	        0.161838	        0.112653	        0.108452
        0.052513	        0.003677	        0.340956	        0.149499	       -0.302617	        0.071263	        0.143631	        0.049180	        0.077710	        0.055727	        0.072719	        0.138045	        0.139278	        0.115096	        0.141445	        0.054583	        0.086391	        0.064628	        0.161793	        0.113723	        0.108498
        0.060627	        0.004990	        0.338376	        0.174181	       -0.332567	        0.074897	        0.143584	        0.048968	        0.077656	        0.056765	        0.072655	        0.146391	        0.139236	        0.116489	        0.141467	        0.055039	        0.086398	        0.067096	        0.161740	        0.114820	        0.108556
        0.068740	        0.006505	        0.335572	        0.199879	       -0.359095	        0.078516	        0.143540	        0.048747	        0.077596	        0.057817	        0.072585	        0.154683	        0.139197	        0.117879	        0.141494	        0.055496	        0.086406	        0.069543	        0.161681	        0.115926	        0.108623
        0.073989	        0.007597	        0.333649	        0.216171	       -0.373066	        0.080848	        0.143513	        0.048601	        0.077555	        0.058505	        0.072538	        0.160017	        0.139174	        0.118778	        0.141513	        0.055794	        0.086412	        0.071115	        0.161639	        0.116647	        0.108673
        0.079238	        0.008776	        0.331655	        0.233118	       -0.386683	        0.083175	        0.143487	        0.048454	        0.077511	        0.059198	        0.072488	        0.165329	        0.139153	        0.119675	        0.141534	        0.056091	        0.086418	        0.072679	        0.161594	        0.117371	        0.108727
        0.089084	        0.011229	        0.327734	        0.265131	       -0.409031	        0.087523	        0.143445	        0.048179	        0.077425	        0.060511	        0.072391	        0.175236	        0.139115	        0.121358	        0.141575	        0.056652	        0.086430	        0.075592	        0.161502	        0.118739	        0.108840
